<svg width="88" height="88" viewBox="0 0 88 88" fill="none" xmlns="http://www.w3.org/2000/svg">
<g id="Component 1">
<path id="Vector" d="M88 88H0V0H88V88ZM2.04442 85.9556H85.9556V2.04442H2.04442V85.9556Z" fill="url(#paint0_linear_5_266)"/>
<path id="Vector_2" d="M54.0058 35.9229V29.8592C54.0058 24.0698 49.3187 19.3601 43.56 19.3601C37.8013 19.3601 33.1113 24.0698 33.1113 29.8592V35.9229H27.28V68.6401H59.84V35.9229H54.0058ZM44.5851 49.0921V54.3533H42.532V49.0921C41.6869 48.7011 41.1003 47.8432 41.1003 46.8481C41.1003 45.4854 42.2009 44.3795 43.56 44.3795C44.9191 44.3795 46.0168 45.4854 46.0168 46.8481C46.0168 47.8432 45.4302 48.7011 44.5851 49.0921ZM51.2528 35.9229H35.8643V29.8592C35.8643 25.596 39.3172 22.1264 43.56 22.1264C47.8028 22.1264 51.2528 25.596 51.2528 29.8592V35.9229Z" fill="url(#paint1_linear_5_266)"/>
</g>
<defs>
<linearGradient id="paint0_linear_5_266" x1="52.8001" y1="110.196" x2="52.8001" y2="-19.8964" gradientUnits="userSpaceOnUse">
<stop stop-color="#0182FF"/>
<stop offset="1" stop-color="#0368DE"/>
</linearGradient>
<linearGradient id="paint1_linear_5_266" x1="46.816" y1="81.0696" x2="46.816" y2="8.21812" gradientUnits="userSpaceOnUse">
<stop stop-color="#0182FF"/>
<stop offset="1" stop-color="#0367DC"/>
</linearGradient>
</defs>
</svg>
