<svg width="90" height="75" viewBox="0 0 90 75" fill="none" xmlns="http://www.w3.org/2000/svg">
<g id="Component 1">
<path id="Vector" d="M34.113 7.30714C33.8497 7.30714 33.1706 7.03053 32.9951 6.84997L27.7299 1.54826C26.8524 0.664635 25.2538 0 24.0138 0H0.5V75H89.5V7.30714H34.113ZM87.5923 73.0791H2.40766V23.2353H87.5923V73.0791ZM87.5923 21.3144H2.40766V1.92091H24.0138C24.7387 1.92091 25.8643 2.38961 26.3793 2.90826L31.6445 8.20997C32.1824 8.75167 33.3347 9.22805 34.113 9.22805H87.5923V21.3144Z" fill="url(#paint0_linear_5_258)"/>
<path id="Vector_2" fill-rule="evenodd" clip-rule="evenodd" d="M62.3587 55.5144C64.3007 54.0584 66.0596 52.5025 67.6124 50.9465C68.551 50.0053 69.2149 49.2638 69.5812 48.822C70.142 48.1458 70.142 47.1623 69.5812 46.4862C69.2187 46.0444 68.551 45.3029 67.6124 44.3616C66.0634 42.8057 64.3007 41.2459 62.3587 39.7937C56.7388 35.5831 50.7487 33.0398 44.5984 33.0398C38.4481 33.0398 32.4581 35.5869 26.8381 39.7937C24.8961 41.2498 23.1372 42.8057 21.5844 44.3616C20.6458 45.3029 19.982 46.0444 19.6157 46.4862C19.0549 47.1623 19.0549 48.1458 19.6157 48.822C19.9782 49.2638 20.6458 50.0053 21.5844 50.9465C23.1334 52.5025 24.8961 54.0622 26.8381 55.5144C32.4581 59.7251 38.4481 62.2684 44.5984 62.2684C50.7487 62.2684 56.7388 59.7212 62.3587 55.5144ZM33.7095 47.6541C33.7095 41.5994 38.5817 36.6934 44.5946 36.6934C50.6076 36.6934 55.4797 41.5994 55.4797 47.6541C55.4797 53.7088 50.6076 58.6148 44.5946 58.6148C38.5817 58.6148 33.7095 53.7088 33.7095 47.6541Z" fill="url(#paint1_linear_5_258)"/>
<path id="Vector_3" d="M44.5947 51.3076C46.5986 51.3076 48.2231 49.6719 48.2231 47.6541C48.2231 45.6362 46.5986 44.0005 44.5947 44.0005C42.5908 44.0005 40.9663 45.6362 40.9663 47.6541C40.9663 49.6719 42.5908 51.3076 44.5947 51.3076Z" fill="url(#paint2_linear_5_258)"/>
</g>
<defs>
<linearGradient id="paint0_linear_5_258" x1="53.9001" y1="93.9167" x2="53.9001" y2="-16.9572" gradientUnits="userSpaceOnUse">
<stop stop-color="#0182FF"/>
<stop offset="0.954" stop-color="#032B91"/>
</linearGradient>
<linearGradient id="paint1_linear_5_258" x1="49.6792" y1="69.6405" x2="49.6792" y2="26.4313" gradientUnits="userSpaceOnUse">
<stop offset="0.374" stop-color="#0182FF"/>
<stop offset="1" stop-color="#032B91"/>
</linearGradient>
<linearGradient id="paint2_linear_5_258" x1="45.3204" y1="53.1507" x2="45.3204" y2="42.3484" gradientUnits="userSpaceOnUse">
<stop stop-color="#1488DB"/>
<stop offset="1" stop-color="#032B91"/>
</linearGradient>
</defs>
</svg>
