<svg width="84" height="100" viewBox="0 0 84 100" fill="none" xmlns="http://www.w3.org/2000/svg">
<g id="Component 1">
<path id="Vector" d="M77.0036 7.65712L42.2061 0.0267364L42.103 0.00384521H41.897L6.99644 7.65712C3.43313 8.45449 0.930427 11.5639 0.915166 15.2188V53.9507C0.892276 62.1113 3.95962 69.879 9.56019 75.8231C13.8484 80.3671 18.5371 84.5981 23.493 88.4018C28.4258 92.1865 33.7022 95.5973 39.1806 98.5426C40.0619 99.0159 41.031 99.2565 42 99.2565C42.969 99.2565 43.9419 99.0159 44.8232 98.5388C55.8717 92.5986 65.833 84.9567 74.436 75.8231C80.0404 69.8867 83.1116 62.1152 83.0848 53.9507V15.215C83.0696 11.5639 80.5669 8.45831 77.0036 7.65712ZM81.1773 53.9544C81.204 61.6307 78.316 68.9329 73.0473 74.5145C64.5854 83.4993 54.7883 91.0152 43.9191 96.8601C42.7173 97.5048 41.2828 97.5087 40.081 96.8639C34.6979 93.9682 29.5055 90.6108 24.6528 86.8872C19.777 83.1445 15.1684 78.9821 10.9489 74.5145C5.68405 68.9291 2.79983 61.6268 2.82272 53.9507V15.2227C2.83416 12.4681 4.72264 10.1218 7.40847 9.52274L42 1.93433L76.5878 9.51893C79.2774 10.1218 81.1658 12.4681 81.1773 15.2188V53.9544ZM64.3032 36.9578L35.9836 65.2779L30.612 59.9061L30.6043 59.8985L19.6931 48.9871L25.0724 43.6077L35.9836 54.5191L58.9238 31.5783L64.3032 36.9578Z" fill="url(#paint0_linear_5_262)"/>
</g>
<defs>
<linearGradient id="paint0_linear_5_262" x1="50.2171" y1="124.29" x2="50.2171" y2="-22.4366" gradientUnits="userSpaceOnUse">
<stop stop-color="#0182FF"/>
<stop offset="1" stop-color="#0353C3"/>
</linearGradient>
</defs>
</svg>
